<svg xmlns="http://www.w3.org/2000/svg" width="682.7" height="562.7" version="1.0" viewBox="0 0 512 422"><path d="M444.8 1.1A57 57 0 0 0 416 12.5c-3.1 2.3-36.7 44.3-107.5 134.4-56.6 72-103.3 130.9-103.7 130.8-.3-.1-24.7-23.4-54.2-51.7-35.3-34-55.5-52.7-59.4-55.1A60.3 60.3 0 0 0 1.4 210a61 61 0 0 0 14.4 52.7c4.3 4.7 126.3 122.1 146.3 140.8a57.7 57.7 0 0 0 42.1 17.7 58 58 0 0 0 35.9-11.3c3.1-2.2 46.5-54.4 127.4-152.9a28749 28749 0 0 1 127.1-154.2c6.5-7 11.8-15.8 14.5-24a66.4 66.4 0 0 0-.3-37.5 60 60 0 0 0-64-40.2z"/></svg>