<?xml version="1.0" standalone="no"?>
<!DOCTYPE svg PUBLIC "-//W3C//DTD SVG 20010904//EN"
 "http://www.w3.org/TR/2001/REC-SVG-20010904/DTD/svg10.dtd">
<svg version="1.0" xmlns="http://www.w3.org/2000/svg"
 width="200.000000pt" height="200.000000pt" viewBox="0 0 200.000000 200.000000"
 preserveAspectRatio="xMidYMid meet">

<g transform="translate(0.000000,200.000000) scale(0.100000,-0.100000)"
fill="#000000" stroke="none">
<path d="M703 1886 c-131 -42 -209 -145 -220 -290 l-6 -73 -73 -6 c-127 -9
-219 -69 -271 -175 l-28 -57 0 -480 0 -480 27 -50 c34 -65 101 -127 164 -151
46 -18 81 -19 519 -19 l470 0 57 28 c106 52 166 144 175 271 l6 73 74 6 c128
10 225 75 277 186 20 45 21 57 21 516 0 438 -1 473 -19 519 -24 63 -86 130
-151 164 l-50 27 -465 2 c-364 2 -474 -1 -507 -11z m963 -172 c15 -11 37 -33
48 -48 20 -27 21 -41 24 -457 3 -409 2 -431 -17 -474 -26 -60 -69 -85 -143
-85 l-57 0 -3 318 c-3 314 -3 317 -28 367 -31 64 -98 131 -158 158 -45 21 -63
22 -364 25 l-318 3 0 57 c0 73 25 116 83 143 40 18 65 19 474 16 418 -2 432
-3 459 -23z m-379 -384 c64 -38 63 -33 63 -522 0 -427 -1 -444 -20 -476 -13
-20 -38 -41 -65 -53 -43 -19 -65 -20 -474 -17 -416 3 -430 4 -457 24 -15 11
-37 33 -48 48 -20 27 -21 41 -24 457 -3 409 -2 431 17 474 12 27 33 52 53 65
32 19 49 20 478 20 424 0 447 -1 477 -20z"/>
</g>
</svg>
